<?xml version="1.0" encoding="UTF-8"?>
<svg id="Layer_1" xmlns="http://www.w3.org/2000/svg" viewBox="0 0 2623.756265529311349 3000">
  <path d="M2460.867161249347191,1026.172856060494269c8.907718797137932-.898274440351088,16.206129303805938-1.412128596067305,23.43873668264132-2.403048662526999,27.773981725138583-3.804545793303987,55.128173239889293-2.41131757997573,82.044352139622788,5.861818703762765,31.007108739395335,9.530349242710145,53.288385276031477,29.708532857574937,55.681931869512482,61.881709375000355,2.983750032362877,40.10610591186105,1.884669071561802,80.850437247993796-1.68456007255736,120.942199119382167-1.392664146525931,15.645804332692023-14.546540674633434,30.147291742588095-21.797707910038298,45.429094954138236-2.109412062010961,4.445471272259965-4.196214844199858,10.237932321506378-3.129866721348662,14.647796622710302,10.645596275840944,44.02472901526744,2.054407396179158,85.82731303136643-12.961191471731581,127.183037998424879-1.792207240654534,4.936712470053862-2.064193502370472,11.331791972520477-.65364440315534,16.384269286849303,13.442060482833767,48.153787630065381,11.32184995881471,93.674684443223668-20.127995722730702,135.203887923278671-2.466773663942149,3.25727846096197-3.010071283497382,10.261895306761289-1.26679457379214,14.067284867152921,19.159171209845226,41.815409275815909,11.227700868217653,82.968292635265243-3.003322244745505,123.641578782706347-4.860995161299797,13.892456326819229-16.888794573595078,22.557606798971392-31.62970756429786,23.728080501448858-24.175394262445479,1.918388848007453-48.486781655748928,2.126968071806914-72.742826931291347,3.011910992190678-3.553706354985479.129940131329931-7.116186460352765.017887862235511-11.535119583382766.017887862235511-.488967857600073,4.555667253764113-1.144974424318207,8.563898421765771-1.318424720248004,12.59305501351264-5.601702164356539,130.260087809696415-11.490238475682418,260.5090378938512-16.62963148550989,390.78735107261673-5.902034388829634,149.615092254913179-9.537741564658063,299.34088675158273-17.44289065515477,448.844939257905935-3.173398021303001,60.017152867119876-14.763184818577429,119.617147286640829-23.199145806935121,179.31164361986157-3.007034216061584,21.279468416247255-7.551162007937819,42.378708182801347-12.200912256295851,63.381420994657674-11.385628375021042,51.425916391748615-43.053805460203876,87.524972409526526-90.127338401238376,107.936710753958323-70.835211127970979,30.714809485009027-145.720857863096171,48.863902010114543-221.521336801088182,62.576467194074212-107.107582449927577,19.375592362132011-215.464411972894595,19.533545560734638-323.749870411054872,18.146392470429419-108.69849960979991-1.392553199661052-217.470395016025577-2.229570149531355-326.041169067437295-7.088318540783803-131.921267052368421-5.903332044421404-263.346817208384891,5.569200278136123-395.030518096675223,6.406892241677269-120.671631808203529.767828048767115-241.428470230654057,4.698770151644567-361.887507318160715-6.040697326112422-103.874033620746559-9.261187542098924-204.493005851290945-33.407776518481114-301.377903666189013-71.605787540789606-50.393469466245733-19.868352340683487-83.228217899752053-57.300897862063721-95.907046462685685-111.202764392619429-27.105236347779282-115.231920984366297-37.727379713955088-232.369743063856731-41.511565742333914-350.359432393939642-5.686065148758644-177.291665214634122-11.249044703274194-354.588730538624077-17.559058484677735-531.858795315845782-2.37616781869292-66.753114272556559-6.680620371884288-133.437377150850807-10.144817600423266-200.151340630589402-.18711709940726-3.601872939118039-.734885957133883-7.185183002326085-1.275483961188002-12.297736533218995-5.966150256977926.525160634675558-11.277896843939743,1.627457956561557-16.515319641644965,1.345639749648399-24.25385183794242-1.304126408987941-48.651120749369511-1.766510772424226-72.667912601140415-4.986663481577125-15.184324836718588-2.035503719620465-25.272619237592153-13.801666988307261-29.377722058641666-28.354624190484174-11.244742191069236-39.864282264850772-19.553146347008806-79.910143206729117.700803311436175-119.839901797498896,1.482510724914391-2.922809187846724.278988389420192-8.890942544512654-1.901710394409747-11.737475187739619-32.025369961143952-41.796846399905917-34.375385254672437-87.723088921452472-20.084295696811751-136.291672451270642,1.172898572152917-3.986293223752,1.858600909381494-9.078258837732392.415993876091306-12.724345172181529-16.942533794661358-42.826242245517278-25.697133775109251-86.318047968910832-13.757493681512642-132.197545793857898.918206722240939-3.528465202582993-1.123461863293414-8.926380762152803-3.574459649153141-12.057262913548584-17.714117650009939-22.625783179562859-26.648495150220697-48.085273742637582-26.773774182060151-76.810817944369774-.098451602796558-22.569419538182046-1.743023620749227-45.190815128895338-.685955426179135-67.694589587743394,2.440199323855268-51.951077026425992,25.506135978421298-79.299255836058364,76.435647847560176-87.888467270418914,21.461015239285189-3.619254541099508,43.891867347263542-1.668465036968882,65.885044292159364-1.846668645648606,7.198271644181659-.058219928972903,14.40691993544533,1.155792155170275,23.619779647169707,1.964289777513841,0-6.417861213804827.049605434829573-11.318629205971774-.007255216656631-16.218384677633367-2.094142361835111-180.596363385862787-4.153527174095871-361.193233031975979-6.320812243408-541.788921404167922-1.001726076799969-83.46898402442821-.541441633897193-166.916705118273967,13.483820160108735-249.483027113497883,7.070546085795286-41.624211654001556,12.390560245230517-84.178254637392456,33.125463277758172-121.945100678465678,6.356413422825426-11.5774969481281,15.809454551143062-24.023398981744322,27.065754471075707-29.910699451521396,59.359398722623155-31.045903689778243,123.469108371005859-47.027696076338543,189.639974454321418-56.126542830983453,121.681203642554465-16.732070079930963,243.663920591363421-9.230980680401444,365.667137745382206-6.535988605924103,89.77790691984228,1.983190160256527,179.612505765204332,1.292144916360485,269.402054776892328,2.901715010685621,38.606020196510144.69222651781638,77.135270077213136,5.099053257509695,115.745845874882434,6.217719660871808,67.635491855535292,1.960577202336026,135.306416164521579,3.531671517511313,202.963167492125649,3.559178324535424,32.138416360245174.013162766548703,64.250511469352205-4.999657494711755,96.423347927233408-5.81608652767045,69.481691406210302-1.763641964331327,138.999827621679287-2.036347486706291,208.494173475552088-3.37405582574138,123.879787379075424-2.384485786623372,247.743883243056189-6.385460557678925,371.632106920576916-7.274791066917714,96.213621548005904-.690876490474693,191.355833194094885,10.13414896985887,282.994956275830191,41.774064688575891,19.913713742349501,6.875520481554304,39.673549401148193,15.192026393539891,57.94893398639033,25.58200554403993,26.189307426117011,14.889282762882431,34.387027346521791,43.053215591799926,41.233252256788546,69.385498829214157,21.902655462632538,84.24592475773261,30.918021427867643,170.377331447097276,30.251553851088829,257.333773593701153-.809209746392298,105.504805257066437-3.17677254067894,210.996785254419592-4.288339223170624,316.500577990983402-1.068035382544622,101.357015012950797-1.402787704657385,202.721961436512174-2.002777249726932,304.08370154514796-.018222404632979,3.11130675498498.599652093136683,6.226326085152323,1.121352788682998,11.277959632396232ZM1313.21016275441616,328.958662243351682l.007592668596772.714333215484658c-55.700660452050215,0-111.406551409134408-.494616266144476-167.100969000339319.091295598763281-177.306190497592979,1.864725261301828-354.679027752865295,1.767185786095979-531.885501202896194,7.100300033416715-112.401528447180681,3.382662250026442-223.989375909795854,19.456087742187265-332.923585698017632,48.936465979559216-24.524150839966751,6.636903149475074-47.462361936148227,19.448493838408467-70.648009665579593,30.436703853282779-4.232322201527495,2.005971871589281-8.756287240134043,8.979031828352163-8.700270218492733,13.605238010550238.691439020167309,57.100418802294371.614078163469458,114.28538306666178,3.994334222528778,171.255186723956285,2.950426653524119,49.726231972583264,7.269220914064135,99.148707794001893.808366116549223,148.931134654549169-3.306016632785031,25.473834603542855-5.740226184747371,51.265094385049451-5.78358875872982,76.917470104111089-.099632684581593,58.957718913233293,1.487066326069908,117.918475387977196,2.463146055612015,176.876869314881333.068249654381361,4.124839779362446.383514127097442,8.311443309466085,1.19272387348974,12.347518791323637,6.73731229740406,33.602180455223788-5.789578530622748,46.765453265836186-39.612639326407589,46.556030274950899-28.410922257382481-.176009814256759-57.016132467844727,2.368622965394934-85.214544367516282,6.120517692499561-20.273774959779985,2.697523375738456-38.519126322575175,13.569799792916456-40.178040047876493,35.902627040027255-2.445936006794,32.927841799646558-1.906181632582957,66.169902462328537-.770234047597114,99.213677859664131.325472393826203,9.467404218057709,6.334647772846438,19.142037632569554,11.241705123629799,27.876377005821269,2.380217241945502,4.236385788209191,7.918984619936964,8.640006212972366,12.567385060539891,9.32953267610992,22.258329804873938,3.301829363131219,44.664463558423449,5.788410967229538,67.090760065246286,7.718950061283067,17.381643128477663,1.49650530472536,34.957911661973412.92291243928139,52.290033718607447,2.758274605968836,21.274319954798557,2.252689367703169,30.355404684885798,12.30971802584645,30.509788946343178,33.616018235446063.095583261329011,13.20664243885949-3.317996176567249,26.463067135829078-2.967974154280455,39.639165206153848,1.553713083749244,58.472552838461525,3.397634833845586,116.947130717931032,6.090585658972486,175.377326448643544,3.011842906169477,65.351110881528257,8.938848738382148,130.616495027064047,10.273639877606911,195.987181305000377,3.311078411845301,162.147733545025403,7.860942886665725,324.205352765209682,19.188023350514413,486.030767283169553,3.729771903439541,53.284566530030133,6.878789022246565,106.643047056844807,8.681204184016678,160.022453007401054,3.310740959910618,98.050798060965462,4.274503693728548,196.191372939942084,8.464644403053171,294.198295112408232,2.564128547945074,59.97597703329302,12.657231638928351,119.120337226075208,35.434478160867002,175.299024863008526,18.383537931249521,45.341680683977756,49.19205620536377,77.801738010832196,98.001948091377926,89.470024297472264,55.026431480704559,13.153653865825618,109.815549886279769,28.88113485249778,165.65971177479878,36.606666297055199,61.406382176173793,8.495722041167028,124.132285791396498,6.9917915860824,185.861018930974751,13.720327841157996,101.196099406844951,11.03107338287009,202.164418755799488,10.869407609083282,303.486050283434452,3.418944234748778,37.104865252045784-2.728405251105869,74.502638785937961-2.395961019003153,111.753114549061138-2.034153692286054,86.531113102109884.840392018217244,173.225384216053499,6.422080049240321,259.522980577336057,2.605890270137024,62.326360521088645-2.756755825212167,124.099806042402633-2.083092183303961,186.224370304800686.58152427605819,59.294354861645843,2.543789012568595,118.746299778158573,4.012618756853044,178.059720674282289,2.736505415137799,53.345245927517681-1.14718573088976,106.548255863333907-7.918585353963863,159.900082103635214-9.974339483662334,96.764343110189657-3.727425481592945,191.30217833601273-18.772130141820526,284.065016370001103-47.020102172558836,48.513440358823573-14.773011658355244,80.112439796794206-45.2809294537401,98.461726356374129-91.165996141462529,5.117121181945549-12.795559114285425,9.591058970803715-25.926262515353301,13.273671965958783-39.204456403156655,21.995454745479947-79.313768629948754,25.518790426081978-160.789268535667361,27.395023199205752-242.379183258319244,1.980505421841372-86.117568909146939,1.580624875772628-172.329977238819993,5.489668121066643-258.352706727433542,5.206208493476879-114.568382547495276,14.898503045566031-228.931560939538031,20.159041300990793-343.498255952858017,4.225573162777437-92.021575967231911,3.796671750071255-184.247681076249137,7.122598047175416-276.322245616516739,3.841215405835101-106.329503207474772,9.622779452936811-212.588467486512855,14.257681816034165-318.890970147217558.373896746878017-8.574361133635648-.87670013391471-17.401852393243644-2.619301939739671-25.854542312999911-7.144194971180696-34.654864272416489,4.720952607189247-52.58356483451098,39.503136172650557-55.939732798018667,30.612289972392318-2.953859816636395,61.387906682590256-5.440441420729258,92.109531082773174-5.664883465758066,25.748595195593225-.188328813719636,35.621763986237056-15.249233802006529,41.095909318177291-36.403824689444264,1.830676761543145-7.074143253730654,3.056302198951016-14.532538038680286,3.047190996632708-21.813404228621948-.03037067437981-23.950666258881029-.185598565683904-47.928501817951656-1.371067222517013-71.842548585278564-1.178719618077594-23.775500211713734-12.182689851659234-37.397613563996856-34.930324966069747-44.20428265128794-8.302330021066155-2.484219056254005-17.135134488053154-3.818889833777575-25.805624573051318-4.331562715572545-25.228581759736699-1.491948962458991-50.492258520982432-2.47055002945217-75.752898214788729-3.332036224831427-23.766739966002206-.810185156517946-36.85548827015009-17.586806138617249-31.871660603563214-40.957635655617196,1.428771503848111-6.69883565362943,2.624026266868896-13.58161253212711,2.75394526285163-20.40228815305818.981985138452728-51.584713357440705,2.220096297551208-103.174658070818623,2.235956538617756-154.763252756860311.00877375037453-28.462795130977611-.14510433317264-57.196608250159443-3.865511945346952-85.326621642201644-5.655019570498553-42.760934673015072-5.774815008349833-85.267726699557898-3.629970492889697-128.193533461287188,3.353934807924816-67.128590626079131,5.096874065689917-134.342739234734836,6.813829524260655-201.538662474317789.129918995979097-5.085721737540553-4.096666522607848-12.827453510161831-8.473080701496656-15.050779783250618-20.834620080091554-10.583201813325104-41.554169049457414-23.48811314203067-63.906310492988268-28.58784141320757-63.238830560392671-14.427742166534699-126.902850562175445-27.823219679366957-191.036266209172027-37.329943443654884-157.773966170720087-23.38702984505926-317.054992694807879-19.188613575745876-475.881808910871769-21.290774895206596-123.85380357988106-1.6391019423545-247.746582858559123-.328056643254968-371.622152088417351-.328056643254968ZM2424.149690821681361,378.354306271418864c-2.455637750001188-76.352483662952181-2.235619086677616-150.121183753431978-25.206647383791278-219.360035863001031-16.217940121623542-48.882802392853591-52.360054995660903-85.648434409015863-107.245937744348339-95.515277965848327-25.316319263514742-4.550942158080034-50.992024840583326-7.762994703201002-76.646470945583133-9.61320717061335-39.036777594876185-2.8151445076046-78.228783081049187-3.400718865676936-117.29728115805483-5.857093608074138-80.408722598018358-5.055852382679404-160.742530865885783-11.364023875228668-241.431844750029995-6.441655445647484-57.93037412981721,3.534202818770609-115.870703091797623,8.108939208692391-173.862999652170402,9.183392216717948-151.499553568730335,2.806875590155869-303.034370864941593,5.609026084625839-454.546747607300858,5.215999375704996-117.419438759468903-.304937425083153-234.832297206155999-5.221568238474902-352.23671935440143-8.498590849261745-72.262464098099372-2.016603336882326-144.534208124485303-7.398993582060029-216.745548254035384-6.539363674271044-76.808532238623229.914474768417676-153.577666963530646,6.975253751186756-230.30799471561113,11.698493148340276-29.356040771648622,1.807349099414751-58.795516534872149,4.719358068555266-87.779263456350236,9.605782020253173-60.451561918702282,10.192200145411334-111.059313365331036,60.351622140232394-120.715331834124299,120.834534439131858-7.035029269361985,44.06489232858894-11.3970173779162,88.600100431228384-15.604199410092406,133.053125619632738-1.837594526265093,19.415080661783577-.308937248884831,39.148936528865306-.308937248884831,59.575862680849241,2.158258229981584-1.233924987387581,4.583440942613379-2.27817113371475,6.615998325833061-3.83559642209002,21.594055665687847-16.547116334557359,45.872204043138481-27.666279001266957,72.324639617605499-33.069594670188962,42.852009201513283-8.752902249154431,85.637540371313662-19.566283723692322,129.004585592607327-23.699054913668988,88.42523082792286-8.426701893491554,177.21094468820047-13.103871607719157,265.863027581186543-19.106430661518061,139.867754005219467-9.47044177956468,279.754574044914989-10.24907004704437,419.821930871232325-3.440038411909882,58.76742366106555,2.856826601678222,117.778825073024564.681426299105624,176.679373523478716.81389773169667,27.16909912697156.061088737066711,54.33836697991137.234398496647373,81.50746610688293.244523701683647,54.763387695333222.020419163494807,109.536730222826009.617468753948742,164.287800922436872-.219041935668429,75.97089216648601-1.160686004275703,151.955113684507523-5.664545958922645,227.878593853758503-4.640887729505266,94.377883007397031,1.272400766532883,188.776688034926337,5.388127861361681,283.020096445183299,10.815406515543145,68.90397368901904,3.968067854683795,137.983422385594167,9.197567503772007,206.224977921079699,19.101030552162229,63.752432409437461,9.251737350730764,129.878839199976937,14.590420460822315,186.707432753493777,59.693821319550807ZM2450.426060847699773,1387.808729306078931c20.335528664363665,2.926690516447707,37.98797697277405,6.44570552766163,55.799365143797331,7.691949514512089,12.198550092733058.853892291601369,24.874594677181449-.273380536045806,36.828492115142581-2.862564217868567,5.771103037037392-1.249619055195581,13.146790037419123-6.928846561424507,15.0378706957963-12.283223739325877,10.229855488702015-28.969899150003585,14.130462435558002-58.959237693988143,9.159120490661735-89.625108687981083-1.630230310602201-10.056016137639745-7.191100790510973-14.027459060666843-17.653798116163671-11.175863814925833-21.2749948586752,5.798029912015409-42.619842268435605,5.644295548845548-64.205967813588359.738971214410412-9.570811854544445-2.175062795737176-19.662649500765838-2.054741609192206-30.418255108263111-3.060343222958181-1.579949971899623,38.426334395934646-3.065075949329184,74.539734454181598-4.546827407382807,110.576182954137039ZM175.781754303419802,1389.083155113621615c-1.626433976303815-38.070433438818327-3.169770412971047-74.196321249949506-4.784646660413273-111.997761741575232-12.826548148625079,1.372302789583955-24.124017204947449,3.315667143350765-35.466198643000098,3.626510938042884-18.202494966719314.499172608408117-36.552118978237559,1.157648442760546-54.621067340645823-.556042510046609-18.096788147262487-1.716053500648741-23.041387026103621-.439433898680363-23.18294811393389,18.355984214727869-.165351449428272,21.936762976678438,1.908459433165262,44.084805231830615,5.230251944032716,65.801682505752979,3.730024992390099,24.386556335799469,10.971827936524278,31.342065937162261,35.871394057088764,31.270176981384793,25.04888860295614-.072563969441035,50.086388203017123-4.061894754704554,76.953214756871603-6.500550388286683ZM2447.821269341273364,1535.759069099207409c20.005163217439986,1.737485184647085,39.659713871704298,3.708862605690229,59.356783470106166,5.06597758771386,14.165894889007177.976069765732973,29.361355639663088.117452378450253,36.781248843872163-13.576549929606699,15.557546679719962-28.713393955690663,19.791556140935427-59.905100598026365,13.729906985616253-92.138015825180446-1.873870609560981-9.963539264950668-8.219316844410059-11.528558457107465-18.357385406085086-11.075286778204827-18.993482308480452.848829689080958-38.138143085012416-.937256479754069-57.180555924445798-2.21573236930999-10.742107529997156-.721589612428033-21.405926210467442-2.616015475176937-34.329997969063697-4.266423896491688v118.20603121107979ZM178.275777211325476,1416.876674191542406c-14.972067567960039,2.348372555318747-26.582185844481501,4.839848008515219-38.319692227447376,5.847980923539581-16.309220870747595,1.400990870527494-32.802690499431264,3.098312741854897-49.054291451831887,2.076342046610989-17.984416652037908-1.131322909661321-24.178262603918483.304093657994599-23.932513230351105,18.24393194563163.323194593245717,23.593752781269359,3.497942422298365,47.52096231514497,8.719589341919345,70.562891421798668,4.577957348627024,20.201809093294287,16.906763889273861,27.998216973122908,37.619395093917774,27.297890291276417,21.888060666331512-.739814981498057,43.714030176141023-3.311279554502107,64.967512473793249-5.034251945264259v-118.994784683593025ZM184.480674714162888,1628.875517237964232c-.807269397751952.000337506833603-2.939375102567283-32.221777501610632-2.239499783960127-48.29149041859273.465430584950809-10.688503945726552-4.187272367857076-13.821579891548026-13.888087581368382-13.097290224442986-18.785021374020289,1.403353418369079-37.587927700737055,3.362243086532544-56.39328055399892,3.478007930807507-19.805391670375684.121839967298001-27.505538708770473,4.88507392435713-26.59281558051407,24.965043050346139,1.163956095808317,25.61069362498165,4.825140892928175,51.170086211106536,8.773159837015555,76.538787435663835.759098133657972,4.877986280829646,7.548631118406774,12.2022220990184,12.011095541387476,12.549516631846927,22.771425476013974,1.771573374946456,45.690823626669953,1.685846638949442,68.561122520404751,2.112792784748308,7.578495614885469.141752870542405,10.130054078153989-3.851627996733441,9.908179429174197-11.352379889431177-.462140428560815-15.622178854267986-.13987382814048-31.267308173293713-.13987382814048-46.902987300945824ZM2441.630376093844461,1627.681755563895422c0,14.256963708212425.982660042329371,28.60235420709796-.292908281844575,42.744228084702627-1.141599904942268,12.660218873603299,3.772712662499544,18.079228610335122,15.644609279621363,17.73294659801104,21.071848792231322-.613587425345031,42.20511383710982-.978432313575468,63.132870651981648-3.16716413611357,4.517469088808866-.472509568477108,11.117354084624822-7.77885752443035,11.899567676005972-12.708144844124035,3.953586901057861-24.912729490977654,6.71833062591395-50.043825903961988,8.910755864577368-75.184710015149903.524737762985751-6.021121929701621-1.836750896422018-12.806696839827055-4.567749427511444-18.413697883450368-1.733490603517566-3.558672064282291-6.459167537828762-7.718781307863537-10.086775867155666-7.961111215125129-23.800485159761593-1.591344725253293-47.671497774485033-2.089842319994204-71.509777551258594-3.162101533598616-8.670827536934667-.389820393989794-10.974274463074835,3.971105416196224-10.816009504334943,11.817126800713595.325303667857952,16.095363436412299-1.510434872747282,48.303303157805203-2.31458284008113,48.30262814413436Z"/>
  <path d="M808.532736377284891,427.204032994478439c84.263098629422529,1.486042592853664,168.521979109620588,3.501633409229726,252.791489325854855,4.179853393409758,30.806324836523345.248067523448299,61.674572103593164-4.408514273866786,92.450188813791101-3.763876219732992,49.609652978155282,1.039014790392685,99.145910159882988,5.276075592269081,148.754888234165264,6.811394182976073,21.008576553927924.6503756703205,42.31377336101832-.733064844805995,63.154130124048606-3.595966569508164,65.750316606070555-9.031345387719739,131.575884994224907-1.692934282476926,197.340543307640473-1.999390488316749,74.575359678492532-.347294532828528,149.16050546317274,1.273413287040057,223.740589468790859,2.087311018736727,42.83328061897555.467278212538986,85.668754675542004.84444210023139,128.497479693360219,1.587969656909991,110.939349201507866,1.925982751783522,221.87498643170693,4.038606783116848,332.812648373525008,6.057572667842578,11.049863697098772.201154073436555,22.123349029829114-.12032118654588,33.14857873548317.484491061100925,24.839837127608916,1.362852598214886,44.931725493013801,11.793332568871847,60.259467403218878,31.726823728634372,18.506876614443172,24.068624897583504,30.63793631965018,50.620793837755627,30.357176307559712,81.311977844341527-.403592517384823,44.086155259168663-.630697671400412,88.245043241200619-3.353934807928454,132.223027559873117-4.551551734504756,73.501563430877468-10.513990020168421,146.928369097885479-16.913091113103292,220.296954835918768-2.757994686096936,31.619834062058544-6.798644187059836,63.252155876997676-12.530265347399109,94.461075367898957-10.413766794703406,56.70148572376911-39.292228711645294,80.185886290618328-96.679642673847411,82.861302968687596-82.010269493923261,3.823614929462565-163.78061066020382-.022275451085079-245.708373155383015-3.913729254307327-101.147168875890202-4.804409790880527-202.470825115153275-6.198650524715049-303.736102169204969-8.125308290168505-91.601834642635367-1.742547787169315-183.226109839117271-2.6806480340083-274.843973448787438-3.003642074741947-32.155795135029621-.113402296434288-64.311421544092809,2.997060691465776-96.487801247316384,3.927229527690542-11.871390439213428.343413204229364-23.795592106665936-1.878056781268242-35.706464422581121-2.017615857384953-35.885820127421539-.421039776192629-71.777883115690202-.642950519959413-107.665727954736212-.490397430708981-81.499535986347837.346619519157684-163.001096684323784,1.662727420777628-244.495908343546034,1.297376272294969-107.34042428687826-.481115992757623-214.464541881749028,2.343141199380625-321.667623230021491,9.001307279438151-77.071829112943306,4.786859435483166-154.611704063354409,3.665830484276739-231.908951070625335,2.637278405756661-54.357348651399661-.723277146600594-84.157813624882692-26.310514046577737-92.39535287392755-80.305701216906527-9.505683630584826-62.306799233216225-15.776806076179128-125.175209839241688-21.421364636611543-187.982194201371385-4.610268371652637-51.297326287758551-6.639451235496381-102.843901372886648-9.045230461715619-154.31588744756391-1.692743282046649-36.216170889391833-2.853915399367907-72.494949296608866-2.729142545435025-108.740652034032792.054835939859913-15.929647580609526,2.496131982512452-32.198320776601577,6.375226368345466-47.6811093081742,4.99099852026302-19.920665900045606,18.338656823545534-34.872218673915995,35.01485667644738-46.527848454258674,30.669319349848593-21.43573408067914,64.633856870477757-33.290324140031771,102.249033815176517-32.832496118862764,51.580287930824852.62793146581771,103.150367940537762,2.418742730336817,154.730234056441986,2.701404704334891,85.198684126447915.466940705702655,170.401923854054985.126902569817503,255.603138870035764.126902569817503.003037067439436.504910224599371.006074134877053,1.009651695781031.009279928284741,1.514561920376764ZM2334.6020948492569,718.115011537644023c-1.148011491754005-.058388682390614-2.295685531571507-.116946118195301-3.44335957138901-.175503554003626,0-17.939838287637031.874000518415414-35.930640107299951-.163326737801981-53.810402178372897-3.143027346919553-54.177947121283069-38.297420399569091-91.638505709934179-91.957677710848657-99.073106263045702-43.437825765202433-6.018421875026434-86.895561194727634-6.870626632454332-130.835852895037533-5.880719086497265-75.946595626977796,1.711159651545131-151.983459647264681-.66488846421089-227.983035228447989-1.247594014193055-165.329346327875101-1.267844424266514-330.658692655750201-2.558976820120733-495.988882613473834-3.693168537879501-78.740022766523907-.540179688814533-157.489494187306263-1.594719793599324-236.221924285237037-.915824795752087-148.303546267608908,1.278475889555921-296.596125347246925,3.806233327478367-444.8969719993529,5.482461021642848-63.559747353061539.718552050912876-127.13898255551976.002700054676097-190.689871795217186,1.086096993822139-42.241896098308644.720070831668636-84.657411218520792,1.467310963528689-126.619137845627847,5.824692951950965-52.222712057053286,5.423059818745969-89.675490256777266,44.954222837824091-90.246205846262455,96.957444670198129-.751842916999522,68.504099730592316.792927690405122,137.151471112480067,4.680458374676164,205.547906162822983,2.657687097645976,46.757690608642406,10.472145979907509,93.266638680166579,17.016098317060823,139.74099230113643,3.506716172676533,24.904460573534379,20.999634077581504,37.112589042155378,44.473634487703748,40.514489181756289,11.256553008885021,1.631170531740281,22.940320170788254.378513915031363,34.430052468564099.322319027067351,28.544637587663601-.139221569284928,57.407829804429639-3.147082479458732,85.568447087089226.053832340123336,62.81473783779802,7.140125839900065,125.003164879386532,1.329945681834943,187.483403484027804-3.004485841831411,90.475757526823145-6.276445850093296,180.956239380771876-13.739903237566978,271.835926876916346-6.802619005276028,23.804028405105782,1.817136797619241,47.978579037710006,2.683179335265777,71.714948329325125.729352269624542,63.024211128071329-5.187311294761457,125.987512181402053-5.731372312176973,189.123588626789569-3.246140735418521,45.968884023262945,1.809374140420914,92.006945693738089,2.822400904547976,138.00788765107427,2.633228323739786,72.275962175604946-.297343521305265,144.545344038426265-2.582433545130698,216.81928150240492-2.671366596053304,35.411700155076687-.043538381664803,71.176206310927228,6.876364248642858,106.166597721894505,3.754257274946212,68.753470124847809-6.134355472719108,137.171850475639076-3.224371544583846,205.689947874001518.051469792279022,73.124653798695363,3.49623329987844,146.14554112658152,9.6067945407558,219.295503820598242,11.952804548231143,40.343054045370081,1.293663697115335,80.848759924665501-3.14185112352061,121.301485849759047-4.29072438858293,15.61491350911092-.4434839806936,31.311490387121012,1.948089449454528,46.924716636549419,1.486380099689086,29.694758154022566-.877686523443117,47.759235278259439-14.973659471537758,53.239454745074909-44.128174860082254,5.858840540819074-31.169093684414293,10.471471076030866-62.736951693940682,12.959841663981933-94.340922934771697,5.055704929298372-64.21067528732965,8.315153194693266-128.562934691786722,12.314971011204761-192.856974167269982ZM2341.567102841565429,592.270188138507365c0-25.095320688512402,2.972614118421916-45.771495637867702-.68064055816285-65.201257846954832-5.814971788924595-30.926932530571321-17.566060612381989-51.920026397641777-54.865298180491664-57.506777031181628-53.094350411905907-7.952336037423265-106.277113231466501-10.581345525733923-159.667071540716279-11.237965072495172-52.033738971993444-.639912958449713-104.100210781933129,1.091497103177062-156.127875619044062.25954275582626-58.916071239586017-.942319082270842-117.795528943937825-4.069826165322411-176.710756553682586-5.224943306824571-22.335606298584025-.438252624759116-44.719130772315111,2.210838520210018-67.097256015043968,2.961791227249705-8.247662807170855.276755604392747-16.548980472420226-1.371459022495401-24.815371862128814-1.273582040456859-84.743967640515621,1.00307031250486-169.492322156220325,1.838399728202603-254.226334964580019,3.422994316762015-71.806229078449178,1.3427709415555-143.589005247233217,4.591780485069648-215.394728147777641,5.066146341134299-37.666385276230358.248573783701431-75.341375576870632-4.841029282439195-113.045386744144707-5.440778927565589-94.764940379836844-1.506799263183893-189.631116340959124-4.658944345158488-284.304269793767162-1.90826364296754-116.498701147693282,3.385024797866208-232.841583863197229,8.426026879820711-349.449703801663418,3.871203393144242-49.63572114033559-1.93880801150317-99.64812300603262-.524823127841046-148.285576951931944,11.70709957262261-12.470958169365986,3.136451014168415-26.858896433321206,8.556304517985154-34.859038244254407,17.730921557003967-25.133167224372301,28.822071156437232-19.796955371934018,64.208481492904866-16.736181934809792,98.818119849485811,19.586975903755956-25.699457922491092,43.48490031050278-43.773455176889001,75.21753071576677-48.784756657396429,24.490743098147504-3.8676595713805,49.257521881259891-7.978999077358822,73.940528220859051-8.236010531927604,57.06236338330018-.594180782356489,114.151216743699479,1.879913068859423,171.224462951986425,1.68888420046278,148.297978310638428-.496810060567441,296.592075923994344-2.06351678689407,444.890054234630952-2.619053036687546,115.564971636324117-.432852515404193,231.135173777680393-.384589038054401,346.699639236096118.166222116051358,148.764674340356578.708933106129734,297.524793079552182,2.362885349208227,446.289129967972258,3.142357383773742,63.555023025935952.332950492356758,127.117132542556647-.387289092733226,190.674180280115252-.866211291064246,54.775198513154464-.412770858744807,109.603039528567024-2.94947222778319,164.305685875129711-1.252487863292117,53.227981379201083,1.651252188399667,107.109269709617365,5.525324389641355,143.024279429642775,60.716804535297342Z"/>
  <path d="M1314.035738919783398,1820.748827735718805c89.257724758012046,1.195449208240461,178.557799734197033,1.151235812907544,267.752927157780505,4.192509899705328,36.054039918322815,1.229199891702592,72.516059229215898,6.530082236320595,107.612916726498952,14.915439542564854,30.123828292704275,7.196995741538558,51.584759169003519,29.45455896452404,59.483496672681213,60.047190975405101,13.418438847198559,51.971664943335782,14.32601583340147,105.001751320058247,3.117718451594556,157.408462573228462-2.727286559776985,12.752358239456953-12.553380805129564,26.364683893538313-23.053535295857728,34.491510964460758-14.114602194487816,10.924421223127865-20.039077137167624,24.390943924649036-20.380409772064013,39.985447218481568-.804485419266712,36.730193798528489.738007387557445,73.50358847188545.628841685742373,110.257745255668851-.322941504295159,108.669100585091655.70038149651009,217.38140204501542-2.152774635997048,325.989076386202214-1.698733053937758,64.659559377381811-43.977411413448863,108.204016166979272-111.406382683166157,122.522068612259318-62.25296472465925,13.218792684907385-124.973469108877907,22.483692802186852-188.953681576203962,21.576136923882586-83.789147383042291-1.188361564712977-167.721711839571071,1.128960361817008-251.337746378621887-3.100337782863789-47.425495311963459-2.398998580512853-95.162121310406292-11.690561737726966-141.283027431563823-23.595777822272794-60.386518057728608-15.588428170809493-94.451278803826426-59.455203987472487-95.391082450076283-122.079597152067436-1.768416879054712-117.845573911694373-1.159653583603358-235.742786369093665-.020753294162205-353.604223102021933.302525662069456-31.299708829417796,4.525905387248713-62.638230944812676-4.448966345475128-93.178211889491649-2.362669741189166-8.039412800757418-8.568748325806155-15.933697662625491-15.031459108980926-21.579511992225889-13.654317751586859-11.92850405614081-24.13759964543533-25.054819868357299-27.056896357715232-43.487418134547625-7.642274031093621-48.255377187288104-7.351896638778271-96.46586596556881,2.922671231655841-144.179544683283893,7.738954011221722-35.939077778166393,30.758575387348174-60.945971676006593,66.104303688622167-68.901007768108684,34.780158853838657-7.827796015448257,70.807540069086826-12.356800229277724,106.454444224680628-13.620425818109652,74.48053568402247-2.639640953599155,149.071080699706727-2.199194534416165,223.616744607686996-2.964660035344423,14.258525445882697-.146140459393791,28.520087959203011-.020587916911609,42.780131938801787-.020587916911609l.042518944139374-1.074284254609665ZM1311.124034876100268,2084.284289415645617c86.105923660717963,1.410778568733804,172.223151961345138,4.26203630764212,258.312203025183408,3.574534885512548,38.40186177425494-.306456205838913,76.826332828328304-7.127469333601766,115.085621158948925-12.169821442894317,20.407743379008025-2.689591965121508,31.208230094212922-15.796669887771714,32.575754071382107-36.727831250685995,2.838139521289122-43.432067013665801,1.368536332989606-86.498951632271201-9.890041387523524-128.810495954981889-1.533381604505848-5.76292920121341-4.085868060603389-11.247077757030638-5.921100423307507-16.939130522972846-3.595044217345276-11.152575843338127-10.860215708158648-17.988776778656757-22.652811119940452-19.35297940421151-32.861069684640825-3.801339478373848-65.652286818192806-9.1997612981977-98.625053094183386-10.806968844677613-48.708656304730539-2.375035595254303-97.556848985666875-1.748960417025955-146.333670581796468-2.90964642129984-44.62295697009904-1.061458994892746-89.252494252981705-4.4638653947477-133.838500235910033-3.854328051413177-69.50311960424915.950756753140013-138.956802499636979,5.497986336034955-208.45992210388431,6.448405582337728-46.55436313501923.637212903769978-92.908111093131083-.025650519430201-138.85911016369937,9.693533797253622-15.916089363430729,3.366630675380293-24.984941460779737,10.916321059099573-30.029341750170715,26.105478644542018-15.25890171492938,45.946155424786411-16.043814921815283,93.110710522567388-13.442904112671386,140.685336424416164,1.149867477412045,21.03680100215206,12.463112411816837,33.897161428685649,32.778056507986548,36.530727259265404,38.721597485140592,5.020076658205653,77.575138677892028,11.308841507761827,116.480816195000443,12.154971142168506,84.231040695347474,1.832662112010439,252.813592427770345-2.226195081180776,252.82000401458572-3.621785842358804ZM943.187532850277421,2287.311863290913607c0,43.974102990072424.194709768002213,85.840813304752373-.049942886766075,127.704823564752587-.296788979128905,50.781953351288394.272492439622511,52.140755867483676,50.991349936708502,59.037708033039962,201.43316040699392,27.393742232306977,403.137463445858884,27.082223423945834,604.947388941194731,4.628906236874172,21.901811832791282-2.43679934598913,43.665774549066555-6.797725156171509,65.198413962109043-11.592684755683877,11.180626322922762-2.489450412191218,19.684752602675871-8.672238115679647,19.292802177140402-22.976115273904725-1.286704238114908-46.971163681540929-1.728766276384704-93.964940321002359-2.581507322731341-140.948591755422967-.087062599905039-4.793609572174319-.75504871040539-9.576418925636972-1.087270142983471-13.569799792916456-20.830739382807224,5.206042924080975-40.096376678975503,11.753338008966239-59.896200392377068,14.661971909761633-75.472306928662874,11.088449544757168-151.584085279104329,9.559543583909544-227.571681316501781,9.220686721942911-28.063515487610857-.125215035644942-56.123825181814027-2.761143414063554-84.178398193078465-2.63390333740972-40.501487730076406.183603718036466-81.018160797346354,3.225890325342334-121.488940401099171,2.577877202864329-80.295170021012382-1.285226026251621-161.369179114031795,3.51985877829793-243.576014361615307-26.11087875389785ZM1680.509724247995109,2116.256986873308051c-16.879177193375654,1.766510772424226-35.146969110021018,5.425084859754861-53.38692124181398,5.29041963273994-86.958833433036489-.641937999458605-173.912773812971864-2.158018700589309-260.86165241384515-3.741263261814311-19.285715686452022-.351007108012709-38.596402816288901-3.748013398508192-57.802986023369158-3.081099893286591-34.93319330754457,1.212999563638732-69.774093510151943,5.967120836161484-104.694801096004085,6.493293991341488-86.744720178618081,1.306488956830435-173.567897932731285,3.726750467922102-258.062657317321282-4.14492143602547,0,38.044782919387217.184080031966005,76.971133690814895-.064453320082976,115.895121914403717-.166532531211487,26.07544053626043,1.513640666156789,28.463301391231653,27.302055190390092,33.161059022371774,2.262783967655196.411758338239451,4.551889186446715.68885144946762,6.835763900202437.973032204219635,111.034004470009677,13.815842275362229,222.200796277469635,24.414906909911224,334.354803728412662,24.36158083004193,112.154007450943027-.053326079872932,223.315737479337258-10.756680326321657,334.325782861778862-24.741276018990902,7.227714325737907-.910255932984001,15.098612044563197-2.111105250576657,21.087034129421227-5.769341831073689,4.88512297483976-2.983560418080742,10.395206938133924-9.788373217783374,10.49610506747922-14.998466223885771.833843737840652-43.09219763119836.471926534752129-86.207345727150823.471926534752129-129.69813893004175ZM940.492810402478426,2494.372981346776214c4.317866267712816,35.770661867685703,7.137277206458748,73.376348395227978,14.013704065144339,110.225344599544769,3.561805201490643,19.087361525358574,16.775073270620851,35.103073348800535,36.251280575856072,42.568387023860851,17.094471529570001,6.553032701074699,34.43933239684884,13.184366987778048,52.271136410099643,16.952630796360609,68.249991833927197,14.421667043508933,137.305481442934251,20.985499963288021,207.133398537132962,17.687383175340074,22.031224650863805-1.040533571147535,44.068017258696273-3.075362277104432,66.090130707243588-2.920446640007867,28.943758866869757.20317911443999,57.873682204299257,2.158018700585671,86.812379292106925,3.293054185429355,64.892007602753438,2.545814053573849,128.454454571314272-7.771769880899228,191.702902511930006-20.441438945872505,11.612396077096491-2.326434611069999,22.854944830571185-6.928340301175922,33.962850260941195-11.262265564590052,28.561594547525601-11.144138172468956,43.434957423734886-33.280873948660883,47.025783491859329-62.823859703854396,3.385486564093299-27.852751527396322,5.269312005810207-55.890119293333555,7.633669006689161-83.861335719680937.323278956231661-3.82293991579354-.396674752664694-7.733969115422951-.637952888057043-11.671323848153406-80.043937053458649,17.435940583542106-159.283557413622475,29.685413639406761-240.438217519731552,28.404912708843767-86.015992719345377-1.35745248886451-172.070286233607476-.161665773790446-258.107032247116877-.395220503349265-26.224233701657795-.071213942104805-52.686877197238573.845454620735836-78.618371343018225-2.238682834064093-54.226332936623294-6.450093116509379-108.171737135186049-15.261046541221731-165.095660861079523-23.517138729806902Z"/>
  <path d="M2318.236350778957785,1755.765599303933413c-24.359305568443233,243.285389109285461-36.557855661172653,487.061175649283541-41.412776687593578,731.27572107429296-.87501287422856,44.029116604117007-7.649360521787457,88.01266978555941-12.989199982555874,131.859870205815241-4.41657095946357,36.264434366745263-23.859201796905836,60.630065278797701-58.558034733778186,75.387214115926326-38.797186719166348,16.500709144798748-78.601667472106783,21.646675852316548-119.988460360505997,21.472184818812821-56.594064456876367-.238954838911013-113.201120813355374-.329069163755776-169.783205726445885.642613013129449-38.746231476590765.664550957375468-75.05589123765094-6.357278736992157-108.150646389087342-27.216888650964393-24.227361860837846-15.270159225754469-34.030509374431858-37.386644591868389-32.472156326537515-65.654529525854741,1.265613492014381-22.957214891164767,1.262576424571307-45.981931149253796,1.977637080373825-68.972221710217127,2.447201451559522-78.68938098588842,4.733100876939716-157.385174601637118,7.53327705524498-236.062742848316702,1.900360586660099-53.387506114591815,5.418634488203679-106.727086258662894,6.699433317407966-160.124717578288255,2.651191147848294-110.511550395309314,3.224015811942081-221.081826979840116,6.794763489779143-331.558951678012818,1.81194817900905-56.071022956690285,7.720394154654059-112.044168931337481,13.006241305403819-167.945088443375425,1.455092754986254-15.389299138380011,4.436311897818086-31.968984882478253,11.775722814905748-45.194190197242278,16.227388775874715-29.241929658710433,43.524213461234467-47.525012397163664,75.979159738952148-51.744860350474482,33.046330798391864-4.296124497934215,66.989440120982181-3.666336744525324,100.438013629001944-2.431736743470537,49.660439494764432,1.83299961884768,99.378583270867239,4.681557303079899,148.789645783737797,9.813011216712766,34.191305222702795,3.551246913917566,68.536825980900176,9.35838951047117,101.67696841794168,18.348559064368601,41.579477944775135,11.279815919988323,68.014450381477218,49.907473142771778,68.621188965298643,93.544069298219256.345550784113584,24.849615712908417.062428608456685,49.708006603512331.062428608456685,74.56268491893934ZM2281.579621700062489,1814.952485357876867c2.313907936208125.058051175554283,6.432171382821252-76.202293121543335,7.072992612345843-114.375328638092469.775464552632911-46.189160345711571-29.251346308003122-85.597470876982698-74.752690671706659-94.46613797041573-24.295527152240538-4.735220889782795-49.107018317085021-6.768362061560765-73.631000431087159-10.391835438091221-75.091492417064728-11.095874695118255-150.566330235262285-10.454949216167734-226.026826346111193-6.534469825168344-40.873865943231067,2.123930510293576-67.194610899045074,23.696692365829222-73.401195661572274,64.191437397759728-7.646154728376132,49.888235253201856-13.707128979822301,100.394108013762889-15.14990473907892,150.784890943719802-3.545101330582838,123.802907049659552-3.027956236193859,247.71854138208073-6.111254590152384,371.539673800809396-2.348496759808768,94.309534799151152-8.042998207009077,188.531655328137276-11.584218840307585,282.817227142033516-1.502842204154149,40.014472806258709-2.464074048442853,80.123110019376327-1.4193228495933,120.129820168436709.567594159063447,21.736115163494105,5.0045809607509,43.520831311172515,9.304224823830737,64.960615473868529,3.185208839116967,15.883409144269535,14.895297252158343,26.151379574050225,30.484058236099372,28.559828345933056,28.077351017054752,4.338312852265517,56.393955457875563,8.537572888664727,84.723889250231878,9.517355229578243,47.823857324314304,1.654458503329806,95.735958330315043.793141061367351,143.610939623176819.913968508164544,38.264350109679071.096526954705041,76.227355639071902-.85422979843861,113.290376850854955-13.094252662933286,33.034857432507124-10.909908429235657,49.307464768022328-32.827939776594576,51.861638483809656-66.911404977992788,3.921866418921127-52.336847338403459,10.084413703589235-104.545442079648637,12.639937227122573-156.938315552597487,10.251789864647435-210.207019261401001,19.481100358330877-420.464327041161596,29.088357022137643-630.703071945012198Z"/>
  <path d="M836.7001870616823,2322.791256760319811c2.928745366532894,79.129489898241445,4.718927895562956,158.301505657647795,7.032667105799192,237.453946020643343.618380675672597,21.150540805418132.830131766524573,42.325719609765656,2.047995809363783,63.442847238562535,1.665494038084944,28.884509920841083-8.84933961193201,51.00335783479386-33.72224702942367,66.333255770281539-30.752838704407623,18.954383832518943-64.325425799501318,26.646502100447833-100.101405321231141,26.454460711545835-59.819092624631594-.321306506561086-119.639872508954795-.80900388259397-179.45820586672744-.636537890102773-43.381218202672244.125215035644942-85.002118372791301-5.935732700541848-124.681320093892282-25.26947421517616-26.188969974176871-12.760795910322486-43.322923380448628-31.444836768307141-48.075174654852162-59.758285124964459-5.632072838739987-33.555267005212954-11.775722814900291-67.31405063170314-13.419873017930513-101.192649184486072-4.13049607935136-85.112473555633187-4.30495873109794-170.425088664196664-8.884772065379366-255.505836577376613-7.872500615532772-146.249136593200092-18.021873817113374-292.374408178096928-26.935666749128359-438.568868664089678-3.082876539037898-50.5618988951137-6.262348695216133-101.148435789149516-7.693482362628856-151.772098434998043-1.337490754724058-47.31103306400837,28.026142685521336-85.226550865736499,73.692163594778322-98.297515557078441,43.696735764337063-12.507665784352866,88.518536288673204-16.00592412523838,133.761392468164559-17.894274864960607,57.011070688782638-2.379085677272087,113.90529864416385-7.473076332258643,170.907679945552445-10.18021865278206,36.136040739160308-1.716222254064633,68.984793428075136,8.303680652268667,97.386604483142946,32.066186850850499,11.413130707938762,9.549418378868722,21.221846178499618,19.762037687771226,23.448691514800885,34.54787460584339,4.166687799663123,27.666110247846518,8.466669114681281,55.424022354713088,10.329403810297663,83.303099415206816,4.723820948660432,70.69958168982339,8.335231584980647,141.477464965282707,11.923020585669292,212.247585583540058.931873525716583,18.378934679483791.140380006047053,36.845621135966212.140380006047053,55.271806772299897-.616862141954698.024975505762995,8.009590465186193,231.978910149362491,12.30214783757765,347.954696197240992ZM799.273392661154503,1968.505607359191345c.591215794695017-.043875888502953-5.863396141972771-180.405165764052072-10.886705685263223-270.474602199814399-1.088957402673259-19.527132930874359-5.647933079810173-39.352284396722098-11.773191925369247-57.999874516564887-11.049863697098772-33.641331248043571-36.916060892950554-50.214941869118775-71.409723051756373-50.940919070395466-53.375616601904767-1.123560252464813-106.910426155378445-2.623778132372536-160.151821249097338.238954838914651-46.23049363789687,2.486075343840639-92.371562512325909,9.437366109770664-138.136541202287844,16.948243207509222-41.253415010058234,6.77072460940326-72.693896400336598,43.541756734917726-74.59476316490327,84.56469996303349-1.148770758614774,24.791902044184098-1.155266708414274,49.768082820075506.398952553241543,74.531296783319704,6.866893841448473,109.412965648603858,15.826664599962896,218.708478918753826,21.501087656874006,328.177808208740316,7.439043601669255,143.511281150727882,12.083732070957922,287.166002706173458,18.910806583766316,430.712047060864279,1.505120004734636,31.647340869079926,6.734190866980498,63.151578840279399,10.984651110156847,94.622066128016741,2.784400300219204,20.615929979372595,14.105828444109648,34.355158203274186,33.518341696120842,43.770586368795193,41.054824544775329,19.911890722345561,84.662810449521203,19.854514560462121,128.43032675777431,19.887252723419806,46.038820937332275.034425697132974,92.111387068427575.470822034301818,138.104905083135236-1.123560252464813,29.265350563417087-1.014883051713696,58.502186438103308-4.73792094446253,87.576707930798875-8.573011106302147,14.236084892030703-1.877888027847803,26.591718861716799-9.478879450431123,31.207049012435164-24.133763716661633,4.947551583296445-15.710605644941097,11.65575865108076-31.9956479224129,11.516559726816922-47.977271555559128-.516638916484226-59.320538760453928-3.81759377020353-118.611376919459872-5.555302522934653-177.928203104736895-3.397803559815657-115.975111034211295-6.671087354648989-231.955284670937544-9.506864712369861-347.945246005874651-.866407849816824-35.432142512556311-.134474597138251-70.903435817934223-.134474597138251-106.356503754239384Z"/>
  <path d="M1311.947080151934642,1500.562506357216989c-35.890207002610623,1.425291362620555-71.804541818761209,4.420664519913771-107.664040695048243,3.867153311128277-42.241896098310463-.651388190828584-84.586546311622442-2.892771079565136-126.61331679970499-7.147044730013477-51.858095238461829-5.249581305750326-97.180927527169843-71.065439098553725-73.695285025200064-130.717578324029091,17.627645590997417-44.774162941550458,45.996386356178846-70.975324773708962,94.641939148579695-73.649897684694224,68.438796193020607-3.762863699230365,136.864431760473963-10.277758127989728,205.265602062450853,1.012351750456219,7.521297511460943,1.241350137748668,15.593654037043962.452259158397283,23.243858188669037-.602618453220202,72.16966481525742-9.94970148473476,144.379655137061491-7.158351208970998,216.089541687320889,2.550032889004797,51.755172397490242,7.007148147060434,88.861218731319241,58.542754260062793,85.366060287506116,112.243129210348343-3.229415042947949,49.622617374352558-44.655014904172276,86.457438291612561-97.34374808706707,92.261205819815586-70.523068085680279,7.768732319388619-140.693667622526846,3.468557739436619-211.025400459580851-.071551448938408-2.754788892692886-.138715309030886-5.522738410956663-.017550355400999-8.284445068367859-.017550355400999l.019234760442487.272368015543179ZM1397.476635903212809,1455.757799047131812c.003880697280692-.287555823103503.007592668594953-.574774139367946.011473365877464-.862329962468721,29.436944873690663,0,58.931931480652565,1.145160689884506,88.293962024192297-.338856861961176,26.57400263499585-1.342939694972301,53.144124572703731-4.203647625251506,75.66769160054173-21.770878367458863,15.860409793724102-12.369962995828246,20.593848122603958-29.013100024836604,12.716876268903434-47.357102746933379-12.039272778176382-28.037367765938143-38.156365489645395-35.252251369706755-63.293329048316082-40.846764660445842-23.07951909505573-5.13668526957008-47.416384109648789-5.627757713946266-71.244709054266423-6.168949923268883-41.798146800349059-.949406725798326-83.632738409960439-.160990760114146-125.448601437034085-.506429005354221-29.875969844522842-.246886249525232-59.759869809580778-2.002765556660052-89.614580182036661-1.513549399874137-25.24140493336381.41344587241565-50.433879335774691,4.188628571108893-75.669716312166202,4.458127778557355-27.426068777464025.292618425621185-52.690926620491155,7.045286419370314-76.560420701493058,19.823295178257467-29.395269559396183,15.735918657537695-31.421499718788255,54.710195399484292-4.897102518621978,74.034486722750444,22.22964639017664,16.195265459462462,47.902314899809426,19.161950535812139,73.47476018396992,19.799500946419357,59.749914977423032,1.489755168033298,119.54994156758039.997332696314515,179.330058493420438,1.232574960046804,25.744208320404141.101252050389121,51.489091544684925.016875341733794,77.233637317029206.016875341733794Z"/>
  <path d="M1089.510236244104817,1739.944628924069548c-39.340653064689832.393195462340373-79.262398365950503-2.623778132372536-117.988551452250249-9.42082827487684-47.577179957921544-8.351269115952164-61.657362054775149-32.983867934191949-53.29631539656657-80.768423087178235.396843478632945-2.268045928674837.892391649014826-4.518541501951404,1.305770272587324-6.783887375953782,9.687064047055173-53.061137005508499,23.570849116218596-67.622194371717342,76.532918368578976-77.857764145377587,17.114718645827452-3.307904486155167,34.646865338479984-6.079510612093145,52.008936254576838-6.204725647738087,80.530374021527678-.581186769220949,161.068340711650308-.144452925218502,241.603439060305391-.077626571965084,15.553834708403883.012825259716919,31.192707305086515,1.063146529068035,46.647668595767755-.172465992491198,87.952966841236048-7.032292406238412,175.810940962037421-2.167468891959288,263.589782603463391,2.552901697097695,21.664414394683263,1.164398579458066,43.387376700535242,7.680980542390898,64.314121159593924,14.205662669352023,18.610305633323151,5.802417500864976,30.81999163999717,20.194721449763165,35.640661294746678,39.303345905700553,4.156226789596985,16.47573363903939,8.212736531626433,33.192109651161445,9.849040977107506,50.041800862956734,3.215410787535802,33.107057928831637-10.923487946463865,55.215443130920903-43.084344860555575,62.719907598795544-28.507433511542331,6.651922203614959-58.072947573462443,12.122232979210821-87.178852096356422,12.158683717352687-61.645551236957544.07695155829424-123.287390502602648-4.026456537070771-184.948295802721987-5.809167637558858-27.584502462170349-.797528650218737-55.211523868481891-.134665227018559-82.819141788377237-.134665227018559-.032395386009739-.594687042605074-148.131108327490438,5.507099020571331-222.176837189899743,6.247251508902991ZM1171.282602122013486,1588.121229450207466c.002699615499296.317256424550578-49.648291225013963-2.289983872928133-74.486609818901343-2.463124879090174-34.904509892845454-.243004920928797-70.119475568295456-2.320696994880564-104.00572423939775,9.326326361184329-32.751903982822114,11.256865455230582-45.859043417571229,29.78902823763201-45.435541235867277,64.090185347366059.378621073999966,30.656758309458382,5.696694884793033,37.682975592673756,36.153925691853146,43.529606488875288,55.586770423107737,10.670278576657438,111.786691016854093,8.198041013030888,167.942067954834783,7.120381690074282,38.61445649495181-.741502515669708,77.256752774756023-.624387644056696,115.877958308457892-.164703335296508,18.321109322789198.218029415165802,36.644749535111259,3.340980155946454,54.927220611045414,3.000098252978205,28.004967576434865-.522460579995823,55.969947098263219-4.112520779901388,83.961754049130832-4.240435870222427,57.968674924741208-.265280372015695,115.962490018831886,1.964289777512022,173.907880759878026.962231985515245,25.069473171148275-.433696282492747,50.171341728306288-5.639739206580998,74.979964551683224-10.195406460341474,6.821253466885537-1.252487863290298,15.263457316090353-6.544595030205528,18.476674666031613-12.431726746559434,16.883395342592848-30.933176407015708,1.198460556428472-76.240768900694093-31.980826305378287-87.859779189482651-20.923032487746241-7.327273379698454-43.802948761702282-11.805651568331086-65.933553008191666-12.352412640422699-41.34612992991606-1.020958174740372-82.780334815553942,2.438149373327178-124.18788099811718,2.761818427730759-46.923366828799772.366869929239328-93.857025941695611-.824529196986987-140.787310535211873-1.037158502800594-46.46915652077405-.210604264804715-92.940000301232431-.045900929508207-139.410000451849555-.045900929508207Z"/>
  <path d="M389.277049857366364,255.246157040835897c-42.195918271811024-.274393056551162-72.540355768724112-32.854771569952391-69.736551982092351-75.600349681992157.594843403025152-9.069314906612817,2.554595530704319-18.334552530727706,5.583901574646006-26.909251171202413,12.936473117302739-36.617129008925986,44.591236487964125-58.98606948734141,73.721521913350443-50.437527626551855,40.385488626521692,11.85138374442613,67.808098521625652,42.673689156265937,63.513347711637834,83.70456379499592-4.196046118231607,40.088049296206009-35.719034507255856,69.485569605679302-73.082219217541933,69.242564684750505Z"/>
  <path d="M693.882765669795845,183.254936694903336c.115408562662196-44.041435603583523,32.731488140596412-83.148858791784733,68.871409577041049-82.578640994687703,37.193615111635154.587093138828095,74.12283663015296,39.193993691286778,74.228965264532235,77.601596457896449.114733658787372,41.517053234004379-33.14132351882472,76.776898507489022-72.574100962485318,76.947339458975875-41.29196889393279.178372362097434-70.636958114624576-29.767427800222322-70.526273879087967-71.970294922184621Z"/>
  <path d="M571.887816088248655,255.203293672838299c-36.334799930415102-.110533488341389-63.578222846645076-22.802468007490461-68.984034161218005-58.777321510127877-4.713866116499048-31.370247757853576,5.391047792301833-58.376194637174194,28.352036894269986-79.91048071356272,20.303723819242805-19.041966856101681,41.662153669492909-20.279773172089335,69.856516145911883-5.856587347824643,49.707176588126458,25.428102427454178,59.09070261729903,86.045342446535869,19.332452779812229,124.886135235386064-13.506682528883175,13.194998453066546-29.61351660004766,19.715799251431235-48.556971658776092,19.658254336129175ZM578.691943869298484,225.740972051115932c23.806306205686269-.145971705974262,38.85328810379724-16.440801681648736,38.959754190113017-42.190210615664.125869572730153-30.458473044115635-18.041699118446559-49.665987002600559-46.654080182583129-49.324598839377359-21.309246230342978.254311399889048-38.735348651600361,22.079022107472156-38.937904177151722,48.766362534907785-.200868265863392,26.459185807229005,17.761529647243151,42.925469254896598,46.632230169621835,42.748446920133574Z"/>
  <path d="M1763.111040810645136,594.326279775041257c114.01522361284151.502378923337346,227.022140836099425,11.640273219368282,339.543127269196702,29.394651501375847,40.528652611053985,6.394741995633922,69.66256564476862,28.090525092390635,91.24632902635858,60.551594939747702,7.221808916830923,10.860969938221388,10.253477124333585,25.931156364462367,11.096769516429049,39.335577808411472,2.223133364983369,35.337978105699221,2.516041646827944,70.8134902465099,2.939206376595394,106.242088937307926.240940683452209,20.171095971339128.559157860621781,40.492213730666663-1.477364582864539,60.509912845670442-5.150528923768434,50.62889400178301-38.648707866617769,76.27367581706585-84.349486325445469,85.997247722599241-29.430195834942424,6.261764302791562-60.347542358937062,8.855166820047089-90.456354040412407,8.01426854157944-115.952366460700432-3.238209324803393-231.875374602834199-7.934110668355061-347.749114762071258-13.370670760488792-39.000670237546728-1.829793303913902-78.374562318094831-4.650337920874335-116.583739035973849-12.11075774683286-45.791384304076928-8.941062309456356-78.687886442166928-36.214989615470586-92.944218450455082-82.861809228937091-14.44378655962646-47.259900778562951-16.675862400959886-95.175577336802235-7.544750421122444-143.421335579299921,4.856608286110713-25.66081338992808,11.129164902438788-51.216830907703297,19.216706765211711-76.019701924013134,3.087516503175721-9.468922998808921,11.907497796539246-18.074672268068753,20.036546247636579-24.724063170424415,43.544966755398491-35.618952545526554,95.368135718323174-43.037015263739704,149.450039225648652-42.454309713761177,35.88582012741972.386782832480094,107.607348769528471,3.302673130219773,107.57630319126838,4.91730582706532ZM1859.779547570551586,936.92170494527727c.04893053095293-1.338552106119096,90.241903334055678-.487697376029246,135.298823495922989.99176383354461,42.384469541953877,1.391540679158425,84.594982610062289,1.414153637076197,125.821485828098957-11.449750611222044,15.549447833214799-4.851660747728602,24.850298137669597-13.590725216663486,29.484863048834086-29.320231244342722,17.25560482977744-58.560473368881503,17.386536181569682-117.990195590336953,8.812219898794865-177.597615160220812-4.075407050542708-28.330829958642425-17.666621289790783-40.61877879365602-45.859043417571229-45.620292575955318-18.09484779862396-3.209858750698004-36.475854840336979-4.783653120553936-54.703996154315973-7.268378437060164-70.67576508744969-9.634132594357652-141.357604309774615-18.805543318448144-213.007086963203619-14.770649110510021-18.798266362573486,1.058590186798938-37.684776406829769,1.28809483434361-56.513244717818452.944344123278825-65.275015551942488-1.192411646727123-130.537545382190729-3.603729226703763-195.814079467854754-3.983255662236843-45.315745798012358-.263592837844044-71.938341512020997,30.247868779306373-69.311615629652806,75.772815674481535.527099926552182,9.137322533790211.292908281848213,18.384672295671407-.425864345263108,27.515582199604069-2.340229187338991,29.718658062619397-4.542440532193723,59.464316672006134-7.799526634025824,89.08948534143201-3.028462414094975,27.546126568139698,10.212476713917567,45.36598117606718,31.977789237942488,59.272275283104136,32.139766167991183,20.535434599314613,68.577151487439551,26.879044309502206,105.26576977444347,28.936148466538725,68.848125393342343,3.860065667600793,137.840848941952572,5.13651651615146,206.77350604566891,7.487757879564015Z"/>
  <path d="M762.485226052558573,978.654087539775901c-61.182229726617152,2.192613151139085-122.352648635416699,5.376483875568738-183.55200404786774,6.092842132058649-24.654154198933611.288737097023841-49.713756900908265-3.080762386449351-73.991652189406523-7.835221165806615-57.348269537440501-11.230371168717284-88.977555286810457-52.343259968261918-88.143205371065051-111.513776940727439.506262269402214-35.898745711427182.921749967585129-71.799010203612852,1.490440845445846-107.696574641120606.123844861103862-7.820202111666731,1.023660452747208-15.631122785383923,1.063311055415397-23.448793595793177.306912537256721-60.489662435596983,54.302006533633175-103.403825211532421,101.676462240035107-110.038703319998604,87.99143636212284-12.323555806064178,175.768422017896228-25.719202072315966,264.881379894673955-27.631009537048158,53.843493713402495-1.154948388084449,107.626920981911098-4.925068484257281,161.466533998032901-6.545270043876371,23.420345552041908-.704545517275619,46.911556010982167,1.179923893851083,70.375432862974776,1.641633243616525,42.793967468242045.841910798970275,78.08216021415501,21.341738427233395,110.196786212794905,46.097864746948289,10.942216528999779,8.435139564355268,16.84560072558088,26.407378508114562,20.204934764507925,41.12807660710132,10.534068410457621,46.161991045530158,21.814411780946102,92.7539657983707,14.614368514092348,140.607203592201586-3.603986693695333,23.953028806725342-8.304186006720556,48.408605290206651-17.227596318958604,70.751557742354635-17.523710394212685,43.875719747780749-53.546536008305338,66.474164873741756-99.349562404231619,70.171721000473553-94.444698491046438,7.624110640751496-283.674753204153603,18.61704575130716-283.705630056443624,18.218450179616411ZM763.937619192040074,937.956669653655808c76.194791527090274-3.543653010143316,152.432101998321741-6.382929256420539,228.564464916953511-10.966103317206034,31.874697670999012-1.918895108257857,62.575737502984339-10.474355859159004,89.537303688324755-29.000106011702883,19.020309737521529-13.069277157165743,30.313307555668871-29.585005356104375,28.383757376404901-54.307887252608452-3.53261560889041-45.258991509490443-5.378983885531852-90.647079383224991-8.556768782023937-135.93745902833507-2.032979198142129-28.972936711514194-25.868053181508003-55.723390917025426-54.268008250917774-57.912966506652992-33.432713266953215-2.577539696027998-67.118515487116383-2.85648909484371-100.677267052766183-2.500250630898336-27.570835658698343.292618425619366-55.101177084883602,3.951023759532291-82.67656834473928,4.382019987348031-52.377939948355561.818622827382569-104.953964184087454-2.294371461776791-157.119309411747963,1.170811209312888-64.634025596449646,4.293424443258118-129.020952011578629,12.928705560547314-193.340303676202893,21.066501603597317-29.257589168852064,3.701943715580455-43.898532023031294,17.090839845138362-46.700648549976904,45.930798863812015-3.63309192331144,37.391200934139306-4.762374832529531,75.271280518228195-3.398478463688662,112.810984459604697.821020564209903,22.599120139627303,8.042323303136072,45.0406245874874,13.142571888200109,67.380539478124774,2.974470104079955,13.02877633701155,11.105374540835328,22.347508794414352,24.861602777582448,24.744651087336024,27.514903000037521,4.794453339261963,55.076543093437067,12.603011465133022,82.686016998990453,12.898498698847106,59.761810158224762.63957545161702,179.491782334520394-1.295182477868366,179.561634885607418.239967359420916Z"/>
  <path d="M353.567210915407486,505.556582159417303c-.287171598907662-19.786338179867926,16.074438685154746-37.175871573648692,34.957658573021035-37.153764875980414,16.925745560763971.019575396406253,32.623419157574972,14.111160755652236,32.61321123646303,29.276355355842497-.012316995724177,18.317002175326706-17.751743541053656,34.636470149930574-37.630952822781182,34.618582287694153-18.559940931636447-.016706588312445-29.696445413715992-9.963370511532958-29.939916986702883-26.741172767556236ZM387.355007983713222,520.571079957944676c8.061979878499187-7.739875485030097,13.404603317752844-12.86896685082138,18.747395482976572-17.998058216609934-5.814549974003967-5.57426288066199-11.013334524852326-14.717154277222107-17.593647308282016-15.852864775735725-8.966941612190567-1.547806343588491-17.216544768001768,6.306483958379431-15.799162267048814,16.437932873558566.732861245511231,5.239456100711323,7.765865803245106,9.597344349383093,14.645414092354258,17.412990118787093Z"/>
  <path d="M1622.452468189630963,2005.995866549288621c-14.18462347154491.722939639766992-28.364522615956957,1.913663752322464-42.554882770440599,2.053729088693217-18.892246727198653.186303772712563-26.329687432164064-11.647023356061254-16.997960275413789-27.888189745030104,7.974664189641771-13.879293560268707,17.180690499626508-27.122724244105484,26.672876052711217-40.036748257345607,9.019415388487687-12.270735986447107,19.162039551320049-15.191520133284939,32.448872142846085-7.776157469750615,21.886626495594101,12.215047358735319,37.415658486581378,30.827536767777929,46.06421419563776,54.405764234652452,4.02968231299019,10.985847467029089-2.832571564315003,19.682048567967286-15.365199075280543,20.502190176102886-10.039363869916997.656788300180779-20.155666781614855.132302679176064-30.237887047613185.132302679176064-.009954832159565-.46440940444154-.01990966431913-.928481302053115-.030033222446946-1.392890706498292Z"/>
  <path d="M1198.115936571060956,2410.790426272498735c-58.419510713389172-1.620707819867675-116.841046138404636-3.181676930009417-175.256001250632835-4.952912798118632-5.938647924063844-.179891142852284-12.393091134763381-.433358775655506-17.585970276702938-2.849570204736665-4.311792132835762-2.006140625009721-9.71541000981415-7.154469880370016-9.857477275547353-11.084061955905781-.141054909921877-3.890103775880561,4.930847712383184-9.825498969588807,9.097029334137915-11.575134400285606,6.11395420565168-2.567751997823507,13.466357022338343-3.053761839681101,20.272931329938729-2.969047624192171,71.242515616666424.888317988734343,142.407079835746117-4.8769737603252,213.787782020866871,4.032531660093809,44.433477707130805,5.545574799718452,89.918961829764157,2.516113452129503,134.919696244018269,3.782101588803926,9.175824361573177.257855221654609,22.551912990596975-.968982122209127,21.730892426388891,12.636930902015592-.736826305776049,12.208972235712281-13.511744307947083,11.982505149677309-23.044424093543057,12.019293394649139-58.007650623530935.224442045029718-116.016819780785227.112052269098058-174.025482760131126.112052269098058-.012991899597182.282493220580363-.025983799196183.565323947997967-.038975698793365.847817168578331Z"/>
  <path d="M1141.286668113667474,2210.361992530673888c-42.29015172538675,0-84.580472176745388.004387588855025-126.870792628102208-.004050082014146-9.121325873646128-.001687534171651-19.256019915941579-.483309787185135-19.328572082527899-12.332499737181934-.07255216658632-11.865052771227056,10.402630880758807-12.663931448783842,19.271373979103373-12.751345718952507,57.392981919174417-.565998961665173,114.789338357722954-.776603226469888,172.182826454803944-1.287588574090478,44.605915647249276-.397245544354519,89.221448674719795-.622362603047804,133.808298287491198-1.826249482153798,17.414882144334115-.469809513797372,34.732915582571877-4.265748882822663,52.153871861781226-4.879336308171332,9.783575301211386-.343919464481587,19.962138095397677,1.818149318125506,29.396113189242897,4.704170260996761,3.588295178593398,1.097234719367407,7.938725558284204,7.570615807464492,7.646492180312634,11.252815373223712-.285821791156195,3.599510391271906-5.651813777090865,9.056658400313609-9.472444614732012,9.713446700494387-14.878762107209695,2.556951779115479-29.996946364159157,4.298824552610313-45.085603576562789,4.937724990559218-33.517919881200214,1.419891253262904-67.067054066628771,2.392585950652574-100.612476280744886,2.804006782058423-37.694393787051013.462721870269888-75.398742406263409.106652159742225-113.098872876254973.106652159742225.003374519375939-.145802952556551.006580312783626-.291943411950342.009786106189495-.437746364510531Z"/>
  <path d="M1177.384576783879311,2570.986020286054554c42.788230785301494,0,85.58084844579389-.369907490749029,128.362667644281828.148840514069889,22.986382360271818.278443138566217,45.954711041882547,2.071279444095126,68.92945131030865,3.218127668147645,1.831182939447899.091126845349208,4.058028275750985-.117789885283855,5.397881194036017.818454073963949,4.813920616001269,3.365618154875847,9.325990473811544,7.163245058069151,13.952119086530729,10.797518653307634-5.018416490194795,3.904616569776408-9.598989091336989,10.261895306764927-15.1375877433602,11.251127839048422-16.256578368480405,2.903233791439561-32.886716031895048,4.972150687688554-49.383054002049903,5.062265012533317-92.039341079746009.503560197259503-184.082900308712851.480272225671797-276.123591196212146.168415910480689-10.449874152023767-.03543821763742-20.986136000077749-2.55222668343049-31.304403896434451-4.752771245184704-8.217292132785587-1.752672992206499-17.381811854445914-4.654894263141614-15.950003283158367-15.482113517900871,1.413586166656387-10.68951646622736,11.112798483463848-11.093849654109363,19.427782952185225-11.332466986190411,11.032653648282576-.316581410876097,22.088085302350009.282830727413966,33.134068302168089.296668507635331,39.554935045074672.050288518359594,79.110038816117594.019575396407163,118.664973861194085.019575396407163.009954832159565-.071213942104805.019740938349059-.14242788420961.029695770510443-.213641826318053Z"/>
  <path d="M1164.825459295811015,1400.281125626216635c-.088243681686436,24.762201442737933-20.56313999628037,45.156389431762364-44.871321596179769,44.694680081996921-22.418450749271869-.42627113213166-41.562436621927191-21.047263714025576-41.775200068594131-44.998098726324315-.213269624569875-23.979691846661808,23.157976670549033-48.429193207120079,46.058646238669098-48.183488231516094,23.153083617453376.24840503028463,40.685061584137657,21.19239165291583,40.587875426104802,48.486906875843488Z"/>
  <path d="M1312.184140138106159,1680.575489179427677c-18.881616991162446-.192716402569204-30.40222614123013-12.271411000114313-30.086033675688668-31.542713750346593.301682032226381-18.390072405025421,14.805703762720441-33.464477666697348,31.790672138535228-33.040569082408183,16.836152071326069.419858502271381,30.533494944960694,16.245553977820236,30.06629273733779,34.737890953736496-.481206463035051,19.053948348730046-12.182014947786229,30.045533431952208-31.77093120018435,29.84539187901828Z"/>
  <path d="M1628.952636137879381,1644.238828350076801c-.240603231515706,18.879119808396354-13.267091653178795,33.348375315588783-29.8101667166884,33.11077050401218-16.916128180542728-.242667414098833-30.301496737851267-16.50914681566428-29.973324728529406-36.425087620027625.268274290403497-16.291117400494841,13.9998685357059-29.96588181898187,30.031197735828755-29.906480616085901,16.71855007106933.061426243901224,29.985979176188266,14.875951242913288,29.75229370938905,33.220797732101346Z"/>
  <path d="M997.098516951202328,1644.426144643290172c-.302019484161065-18.338433859327779,12.826041970720325-33.143846173803468,29.590485505306788-33.370988273505645,16.072160884574259-.217691908332199,29.76866012836399,13.260306025567843,30.157742212430094,29.676975968541228.473613794438279,19.982767157620401-12.760913746758888,36.288397352000175-29.734408756696212,36.634341857490654-16.513885470909372.335819300453295-29.704206808281015-14.140523850266618-30.01381896104067-32.940329552526237Z"/>
  <path d="M1531.55978879389113,1647.60647154596154c-.138861472329154,16.266816908399051-11.108242882306513,27.713698711526376-26.351959260042349,27.498706857873913-17.824380070629559-.251105084960727-33.644126905870507-14.444280001429433-33.501553462228912-30.056333650660235.193866138157318-21.212642062990199,10.732321423805843-34.101353063637362,27.778031148391165-33.973437973312684,17.374387911819213.130277638163534,32.241676653153263,17.062658024446137,32.075481573880097,36.531064766099007Z"/>
  <path d="M1094.530339993987582,1647.277402382198488c.039481876699938-19.608472078019986,14.953507711390557-36.27489707861605,32.395554736704071-36.202333109173196,17.131928694643648.071213942108443,27.558012485067593,13.091890115090791,27.462007408816135,34.296769520886301-.07069618092828,15.583028061450023-16.091058193080244,29.6435627919127-33.853009655245842,29.711401665670564-15.274593230031314.058388682391524-26.037454054190675-11.449919364637026-26.004552490274364-27.805838077383669Z"/>
  <path d="M1191.108915812521445,1645.286787071585422c.064453320081157-18.410322815103427,12.699160042175208-33.208309979218029,28.255356914143704-33.092545134943066,15.092875361624465.112052269098058,31.890726638033811,17.616506740065233,31.567110229863829,32.894766129851632-.351624918990638,16.601286181514297-14.642208298944752,29.928081053501955-31.889545556254234,29.73840221244609-16.425979241161258-.180566156523128-27.992819306680758-12.413163870663993-27.932921587753299-29.540623207354656Z"/>
  <path d="M1434.952023382755215,1645.739383736818127c-.134137145203567,17.012707012923784-11.996247656134074,29.174765798616136-28.388987881440698,29.106251911187428-17.305378990575264-.072226462609251-31.291243270869018-13.537061629955133-31.378137144802167-30.209561753577873-.080144835181272-15.36972374196921,16.969951764593134-32.669311564321106,31.981163757318427-32.448582094479207,15.585723916505231.229167140714708,27.931234328065329,15.136506519247632,27.785961268924439,33.551891936869652Z"/>
  <path d="M1737.24416871091853,785.992192322918527c-2.776217090729915-50.402426915749857,40.257678705151193-103.826383768478991,95.81019775659297-117.127359367616009,8.178653885926906-1.958214654494441,17.668983453353576-1.745079088426792,25.87800801366393.245198715354491,77.413161747837876,18.768923826891296,114.971899855972879,94.282703005798794,99.855065406776703,160.152055631893745-12.350234738685685,53.813270986466705-73.196362335442245,90.735843680728976-127.924992481202935,78.374487109185793-8.042154577164183-1.816461783948398-15.870870803788421-4.633800085979601-23.72911407495485-7.199358289375596-38.412491510287509-12.539728933644255-59.932139023734635-39.280057934118304-65.747785716532235-78.929179591895263-1.728935002356593-11.787594952681502-2.779760336077743-23.674416914742324-4.141378904343583-35.515844207547161ZM1839.743170048883258,709.657934029038188c-45.773330625419476-.554523729287212-66.742931480555853,32.530258748460255-64.331499934378371,70.23837860031017.585479111756285,9.157235437032796,1.107517259239103,18.350415351955235,2.377686352410819,27.426311641846951,5.139561735795724,36.720912360572584,24.988822158058611,56.365497669897195,61.743749750803545,61.556352786423304,29.732046593133418,4.198922529566516,69.802608198875532-18.875407233213991,82.400026481864188-44.997423712654381,24.791244048588851-51.407691022682229-29.042126106687647-122.789374025280267-82.189962650700181-114.223619315926044Z"/>
  <path d="M889.007768281044264,786.47668338402309c-1.656214109798384,12.752526992872845-3.671814533154247,25.470122028364131-4.909419514346155,38.263149841391169-7.207635935450526,74.503789976294684-114.668868015995031,111.053248864877787-177.172222078361301,62.731045324335355-33.983941007041722-26.273219541350045-46.933659112895839-59.594088049917445-41.869349159185731-100.262986608510801,5.764860176192087-46.292774943945005,27.320277595021253-82.232358982364531,69.980107918061549-105.912176006462687,36.382043201681881-20.194890203180876,69.001497298990216-16.067856629388189,100.544817167254223,6.930196588765284,32.893465070648745,23.982391901336996,53.465378817309102,55.511774131718084,53.426065666577415,98.25077086048168ZM851.488849501551158,782.426770121945992c.540429278084048-28.803002020280474-6.452418499076884-53.823227438089816-34.932687129637998-66.493234009898515-10.083232621811476-4.485634585577827-22.081336263598132-5.617126248656859-33.33215258954624-6.359978791663707-48.878057177413211-3.228590380019341-93.674633169412118,49.315823661675495-83.554112108497065,97.384053309164301,6.625868795006681,31.469981027484209,37.264648744505394,58.998050979968866,69.302166975401633,62.266298413058394,38.445393074207459,3.921829418338348,70.895615024801373-17.677089216881541,78.142057933078831-52.65747883129734,2.320488248988113-11.201176827520612,2.964009094013818-22.749985694704264,4.374726919200839-34.139660089363133Z"/>
  <path d="M1870.351579323991245,752.12743155035696c-1.279280295486387,10.579995498393146-2.296866613352904,20.603273473076115-3.75398407996181,30.562087642345432-1.287210416023299,8.799815699167084-6.570695403210266,16.022293206713584-15.398775543071679,13.388389869303865-5.436688166864769-1.622057847205724-12.23145165664755-9.504023709610919-12.674357324762241-15.035254468857602-1.340865274101816-16.747764147741691-.705780727515958-33.804347049165699,1.007125307805836-50.551436183236547.492173651007761-4.812003694662963,7.076367131718143-12.393419720833663,11.170502764794946-12.59659883527911,5.273192703090899-.261736550249225,13.527267097073491,4.404126685017218,15.68544096406913,9.140866355555772,3.429355315980501,7.526739918966086,2.877790123951854,16.86774782745124,3.964047911125817,25.09194562016819Z"/>
  <path d="M1874.560954793761994,830.371978528213731c.203314792412129,10.161318270040283-9.281278092075809,18.042946625613695-21.695797424876218,18.028940091976438-11.104362185025821-.012487752880588-19.850778955984424-7.985749214051793-20.099649759973545-18.323246051770184-.246508640422689-10.227638363046935,8.346367498925247-18.669865570927868,19.329078260438109-18.991003324073972,11.890287747719412-.347632039663949,22.251580766122061,8.546348066362953,22.466368924411654,19.285309283867718Z"/>
  <path d="M793.249538122845479,811.307398714187912c0,10.583201813326014,1.799968635221376,21.61360018252708-.675410053128871,31.582033296581358-1.483944895648165,5.975727260445638-8.906031537451781,13.080414882711921-14.984553289652467,14.699435168406126-9.077119669820604,2.41773020983419-15.993703309080956-4.735895903452729-17.305716442517223-13.832548863671036-2.819410938745932-19.547383340954184-5.178031256684335-39.220150470969202-6.380372510395318-58.92363072293756-.954482805535008-15.644960565606198,7.055613837557758-25.173622274144691,19.007149111956096-25.567999010402673,11.666894565019902-.384926544889822,20.084633148748253,9.232330707738583,20.760380653815446,24.416088183828833.409160474355303,9.191492380749878.075420508057505,18.416060431292863.075420508057505,27.625778181110945-.165688901368412.000337506835422-.331209076766754.000506260252223-.496897978135166.000843767084007Z"/>
  <path d="M789.195053092440503,733.012900724807878c-.726365295709911,8.871029641273708-5.92886181787253,14.858569640933638-16.246286084384337,15.254465157948289-9.705792629591087.372607545425126-18.995338294136673-8.807578356363592-18.18882816324367-18.255575931428211.863033330440885-10.108835957257725,7.065231217777182-15.545227295976474,17.182377759318115-15.71600575429602,9.646569814538452-.162509540868996,17.165505162436602,7.741731772617641,17.252736488309893,18.717116527775943Z"/>
</svg>